<?xml version="1.0" encoding="UTF-8"?>
<svg id="Layer_1" xmlns="http://www.w3.org/2000/svg" viewBox="0 0 954.35 265.69">
  <defs>
    <style>
      .cls-1 {
        fill: #fc7600;
      }
    </style>
  </defs>
  <g>
    <path d="M305.55,105.54h15.48v.79h-.63c-1.36,0-2.71.41-4.05,1.22-1.34.81-2.29,2.03-2.87,3.65l-13.04,41.56c-1.05,3.3-1.62,6.21-1.73,8.72h-.71s-16.03-44.94-16.03-44.94l-11.94,36.22c-1,3.25-1.55,6.16-1.65,8.72h-.71s-17.84-50.36-17.84-50.36c-.63-1.57-1.6-2.76-2.91-3.57-1.31-.81-2.65-1.22-4.01-1.22h-.63v-.79h17.44v.79h-.71c-1.1,0-1.93.35-2.48,1.06-.55.71-.83,1.38-.83,2s.08,1.21.24,1.73l11.94,38.26,14.61-45.1.71.08,15.48,43.45,10.53-36.77c.16-.58.24-1.16.24-1.77s-.26-1.24-.79-1.92c-.52-.68-1.34-1.02-2.44-1.02h-.71v-.79Z"/>
    <path d="M369.75,159.76h.63v.79h-17.68v-.79h.71c1.1,0,1.93-.35,2.48-1.06.55-.71.82-1.37.82-2s-.11-1.26-.31-1.89l-5.03-13.36h-21.21s-5.26,13.44-5.26,13.44c-.21.63-.31,1.25-.31,1.85,0,.6.27,1.26.82,1.96.55.71,1.38,1.06,2.48,1.06h.71v.79h-15.79v-.79h.71c1.31,0,2.59-.42,3.85-1.26,1.26-.84,2.28-2.07,3.06-3.69l17.76-42.27c1.94-4.24,2.91-6.94,2.91-8.09h.71s21.06,50.36,21.06,50.36c.73,1.62,1.73,2.86,2.99,3.69,1.26.84,2.57,1.26,3.93,1.26ZM331.09,139.09h19.33s-9.43-25.22-9.43-25.22l-9.9,25.22Z"/>
    <path d="M410.21,112.54c0-1.26-.45-2.34-1.34-3.26-.89-.92-1.94-1.4-3.14-1.45h-14.93s0,47.06,0,47.06c.05,1.36.56,2.51,1.53,3.46.97.94,2.13,1.41,3.5,1.41h1.02v.79h-17.21v-.79h1.02c1.36,0,2.53-.47,3.5-1.41.97-.94,1.48-2.07,1.53-3.38v-47.14s-14.93,0-14.93,0c-1.26.05-2.32.54-3.18,1.45-.86.92-1.3,2-1.3,3.26v1.34s-.79.08-.79.08v-9.9c.79.31,2.15.63,4.09.94,1.94.31,3.72.47,5.34.47h26.56c2.57,0,4.7-.2,6.4-.59,1.7-.39,2.74-.67,3.1-.82v9.9s-.79-.08-.79-.08v-1.34Z"/>
    <path d="M423.06,153.71c-5.21-5.24-7.82-12.14-7.82-20.7,0-8.56,2.61-15.46,7.82-20.7,5.21-5.24,12.11-7.86,20.7-7.86,7.02,0,13.23,1.78,18.62,5.34l1.57,11.08h-.71c-1.15-4.5-3.48-7.97-6.99-10.41-3.51-2.44-7.67-3.65-12.49-3.65-6.86,0-12.35,2.38-16.46,7.15-4.11,4.77-6.17,11.08-6.17,18.94,0,7.86,2.03,14.18,6.09,18.98,4.06,4.79,9.42,7.27,16.07,7.43,5.87,0,10.76-1.6,14.69-4.79,4.24-3.46,6.81-9.09,7.7-16.89h.63s-.94,12.34-.94,12.34c-4.77,7.81-12.13,11.71-22.08,11.71-8.28-.05-15.02-2.7-20.23-7.94Z"/>
    <path d="M513.22,159.76c1.36,0,2.53-.48,3.5-1.45.97-.97,1.48-2.11,1.53-3.42v-20.35s-32.14,0-32.14,0v20.35c0,1.36.5,2.51,1.49,3.46.99.94,2.17,1.41,3.54,1.41h1.02v.79h-17.21v-.79h1.02c1.36,0,2.53-.47,3.5-1.41.97-.94,1.48-2.09,1.53-3.46v-43.69c-.05-1.36-.56-2.51-1.53-3.46-.97-.94-2.13-1.41-3.5-1.41h-1.02v-.79h17.21v.79h-1.02c-1.36,0-2.53.47-3.5,1.41-.97.94-1.48,2.1-1.53,3.46v20.98s32.14,0,32.14,0v-20.98c-.05-1.89-.89-3.3-2.51-4.24-.79-.42-1.62-.63-2.51-.63h-1.02v-.79h17.21v.79h-1.02c-1.36,0-2.53.48-3.5,1.45-.97.97-1.48,2.13-1.53,3.5v43.61c.05,1.36.56,2.51,1.53,3.46.97.94,2.13,1.41,3.5,1.41h1.02v.79h-17.21v-.79h1.02Z"/>
    <path d="M538.91,157.32c-.16-.73-.24-2.15-.24-4.24,0-2.09.39-4.32,1.18-6.68h.71c-.05.58-.08,1.15-.08,1.73,0,3.2.97,5.85,2.91,7.98,1.94,2.12,4.5,3.18,7.7,3.18,3.3,0,6.01-.99,8.13-2.99,2.12-1.99,3.18-4.49,3.18-7.5,0-3.01-1.02-5.46-3.06-7.35l-15.09-13.99c-2.83-2.62-4.24-5.79-4.24-9.51,0-3.72,1.24-6.9,3.73-9.55,2.49-2.64,5.85-3.97,10.1-3.97,1.99,0,4.24.26,6.76.79h3.06v9.66h-.71c0-2.46-.85-4.43-2.55-5.89-1.7-1.47-3.89-2.2-6.56-2.2-2.67,0-4.91.89-6.72,2.67-1.81,1.78-2.71,4.01-2.71,6.68s1.05,4.98,3.14,6.91l15.48,14.3c2.62,2.41,3.93,5.71,3.93,9.9,0,4.19-1.34,7.64-4.01,10.33-2.67,2.7-6.23,4.05-10.69,4.05-2.31,0-4.75-.35-7.35-1.06-2.59-.71-4.6-1.79-6.01-3.26Z"/>
    <path d="M617.79,112.54c0-1.26-.45-2.34-1.34-3.26-.89-.92-1.94-1.4-3.14-1.45h-14.93s0,47.06,0,47.06c.05,1.36.56,2.51,1.53,3.46.97.94,2.13,1.41,3.5,1.41h1.02v.79h-17.21v-.79h1.02c1.36,0,2.53-.47,3.5-1.41.97-.94,1.48-2.07,1.53-3.38v-47.14s-14.93,0-14.93,0c-1.26.05-2.32.54-3.18,1.45-.86.92-1.3,2-1.3,3.26v1.34s-.79.08-.79.08v-9.9c.79.31,2.15.63,4.09.94,1.94.31,3.72.47,5.34.47h26.56c2.57,0,4.7-.2,6.4-.59,1.7-.39,2.74-.67,3.1-.82v9.9s-.79-.08-.79-.08v-1.34Z"/>
    <path d="M629.66,112.34c5.6-5.26,12.87-7.9,21.8-7.9,8.93,0,16.2,2.63,21.8,7.9,5.6,5.26,8.41,12.17,8.41,20.7,0,8.54-2.8,15.44-8.41,20.7-5.61,5.26-12.87,7.9-21.8,7.9-8.93,0-16.2-2.63-21.8-7.9-5.61-5.26-8.41-12.17-8.41-20.7s2.8-15.44,8.41-20.7ZM633.94,152.06c4.43,4.82,10.25,7.23,17.48,7.23,7.23,0,13.06-2.41,17.48-7.23,4.43-4.82,6.64-11.16,6.64-19.01,0-7.86-2.21-14.19-6.64-19.01-4.43-4.82-10.25-7.23-17.48-7.23-7.23,0-13.06,2.41-17.48,7.23-4.43,4.82-6.64,11.16-6.64,19.01s2.21,14.2,6.64,19.01Z"/>
    <path d="M704.07,107.98h-5.03s0,46.83,0,46.83c0,1.36.48,2.53,1.45,3.5.97.97,2.16,1.45,3.58,1.45h.94s.08.79.08.79h-17.21v-.79h1.02c1.36,0,2.53-.47,3.5-1.41.97-.94,1.48-2.09,1.53-3.46v-43.61c-.05-1.36-.56-2.53-1.53-3.5-.97-.97-2.13-1.45-3.5-1.45h-1.02v-.79h21.21c4.77,0,8.51,1.32,11.24,3.97,2.72,2.65,4.09,6.08,4.09,10.29,0,4.22-1.3,7.86-3.89,10.92-2.59,3.06-5.75,4.6-9.47,4.6.79.37,1.72,1.09,2.79,2.16,1.07,1.07,2.03,2.19,2.87,3.34,4.51,6.44,7.44,10.41,8.8,11.9,1.36,1.49,2.33,2.51,2.91,3.06.58.55,1.2,1.09,1.89,1.61.68.52,1.36.94,2.04,1.26,1.52.73,3.14,1.1,4.87,1.1v.79h-4.32c-2.25,0-4.35-.41-6.29-1.22-1.94-.81-3.39-1.65-4.36-2.51-.97-.86-1.81-1.7-2.51-2.51-.71-.81-2.66-3.52-5.85-8.13-3.2-4.61-5.06-7.24-5.58-7.9-.52-.65-1.07-1.3-1.65-1.93-1.68-1.78-3.35-2.67-5.03-2.67v-.79c.42.05.97.08,1.65.08.68,0,1.52-.03,2.51-.08,6.49-.16,10.58-2.88,12.26-8.17.31-1.05.47-2.03.47-2.95v-1.77c-.11-3.51-1.02-6.34-2.75-8.49-1.73-2.15-4.06-3.3-6.99-3.46-1.26-.05-2.83-.08-4.71-.08Z"/>
    <path d="M739.74,159.76c1.36,0,2.53-.48,3.5-1.45.97-.97,1.48-2.13,1.53-3.5v-44c0-1.26-.5-2.32-1.49-3.18-1-.86-2.17-1.3-3.54-1.3h-.94s-.08-.79-.08-.79h23.02c1.62,0,3.39-.16,5.3-.47,1.91-.31,3.26-.63,4.05-.94v9.9h-.79v-1.41c0-1.26-.43-2.33-1.3-3.22-.86-.89-1.9-1.36-3.1-1.41h-16.03s0,24.28,0,24.28h13.28c1.05-.05,1.94-.44,2.67-1.18.73-.73,1.1-1.65,1.1-2.75v-1.1h.79v12.41h-.79v-1.18c0-1.05-.35-1.94-1.06-2.67-.71-.73-1.58-1.13-2.63-1.18h-13.36s0,23.49,0,23.49h11.24c3.88,0,6.84-.86,8.88-2.59,2.04-1.73,3.74-4.29,5.11-7.7h.79s-4.56,12.73-4.56,12.73h-32.61v-.79h1.02Z"/>
    <path d="M788.92,159.84c-.68.68-1.52,1.02-2.51,1.02-1,0-1.83-.34-2.51-1.02-.68-.68-1.02-1.52-1.02-2.51,0-.99.34-1.83,1.02-2.51.68-.68,1.52-1.02,2.51-1.02.99,0,1.83.34,2.51,1.02.68.68,1.02,1.52,1.02,2.51s-.34,1.83-1.02,2.51Z"/>
    <path d="M836.61,105.54h15.79v.79h-.71c-1.31,0-2.59.41-3.85,1.22-1.26.81-2.25,2.03-2.99,3.65l-18.94,42.35c-1.94,4.24-2.91,6.94-2.91,8.09h-.71s-22.08-50.36-22.08-50.36c-.74-1.68-1.74-2.92-3.03-3.73-1.28-.81-2.58-1.22-3.89-1.22h-.63v-.79h17.68v.79h-.71c-1.1,0-1.93.35-2.48,1.06-.55.71-.83,1.36-.83,1.96,0,.6.13,1.22.39,1.85l16.42,41.17,17.13-41.17c.21-.63.31-1.24.31-1.85s-.28-1.26-.83-1.96c-.55-.71-1.38-1.06-2.48-1.06h-.71v-.79Z"/>
    <path d="M912.67,106.33c-1.31,0-2.44.46-3.38,1.38-.94.92-1.44,2.03-1.49,3.34v40.54c0,3.04.18,5.92.55,8.64l.16,1.41h-.71s-42.82-45.73-42.82-45.73v39.13c0,1.31.47,2.42,1.41,3.34.94.92,2.07,1.38,3.38,1.38h1.49v.79h-16.19v-.79h1.49c1.31,0,2.44-.46,3.38-1.38.94-.92,1.41-2.06,1.41-3.42v-40.78c0-3.19-.18-6.05-.55-8.56l-.16-1.26h.79s42.82,45.73,42.82,45.73v-38.97c-.05-1.36-.55-2.5-1.49-3.42-.94-.92-2.07-1.38-3.38-1.38h-1.49v-.79h16.19v.79h-1.41Z"/>
  </g>
  <g>
    <path class="cls-1" d="M122.81,143.14l-5.62-11.14-15.93,31.12-41.01-79.44s-1.56-9.34,9.78-11.79h-29.77s60.37,116.78,60.37,116.78l22.17-45.53Z"/>
    <path class="cls-1" d="M152.06,188.68l.03-.06v.02s6.78-13.12,6.78-13.12l5.62-10.9h0s47.93-92.72,47.93-92.72h-29.77c11.35,2.46,9.78,11.79,9.78,11.79l-40.57,78.57-6.93-13.13-12.37-24.58,25.64-52.66h-27.33c11.35,2.46,9.78,11.79,9.78,11.79l-13.89,29.35-29.18-57.97c-1.03-2.04-.76-3.69-.52-4.56.04-.14.08-.26.11-.35.81-1.97,2.73-3.35,4.99-3.35h8.39s30.28,0,30.28,0h9.36c2.98,0,5.39,2.41,5.39,5.39,0,.53-.09,1.04-.24,1.53h.01s-2.96,7.02-2.96,7.02c0,0-.26,1.29,1.12,1.68.05.01.08.03.13.04.21.05.45.07.73.07h7.39c1.17,0,2.23-.56,2.67-1.41l9.47-18.22h-10.2s-74.8,0-74.8,0h-1.23s-10.2,0-10.2,0l73.36,143.28,1.21,2.49Z"/>
    <path class="cls-1" d="M155.39,195.06l7.53,14.7,1.21,2.36c.08.38.13.76.13,1.16,0,.43-.06.85-.16,1.25-.57,2.37-2.69,4.14-5.23,4.14h-4.59s-39.01,0-39.01,0h-4.43c-2.98,0-5.39-2.41-5.39-5.39,0-.96.27-1.85.71-2.63l4.62-9.13c.75-1.49-.64-3.11-2.68-3.11h-7.58c-1.17,0-2.22.55-2.66,1.4l-12.11,22.96h10.37s74.68,0,74.68,0h2.64s8.6,0,8.6,0h1.77s-21.75-41.22-21.75-41.22l-6.67,13.5Z"/>
  </g>
</svg>